<?xml version="1.0"?>
<svg xmlns="http://www.w3.org/2000/svg" id="Outline" viewBox="0 0 512 512" width="512" height="512"><path d="M288,144h16a8,8,0,0,0,0-16H288a8,8,0,0,0,0,16Z"/><path d="M416,240H388.58A40.366,40.366,0,0,0,376,224.165V208a8,8,0,0,0,8-8V168a7.972,7.972,0,0,0-2.346-5.659A23.993,23.993,0,0,0,360,128h-1.371A24,24,0,0,0,336,96H316L294.4,67.2a8,8,0,0,0-12.8,0L260,96h-5.442L239.845,22.431A8,8,0,0,0,232,16H200a8,8,0,0,0-7.845,9.569l14.1,70.5A24,24,0,0,0,185.371,128H184a23.993,23.993,0,0,0-21.654,34.341A7.972,7.972,0,0,0,160,168v32a8,8,0,0,0,8,8v16.165a40.071,40.071,0,0,0-15.953,30.277,63.093,63.093,0,0,0-32.429-13.976C117.685,220.453,107.888,192,80,192a8,8,0,0,0,0,16c3.491,0,14.116,0,20.31,18.23a72.434,72.434,0,0,1,3.14,14.339,64.026,64.026,0,0,0-54.392,75.04c2.762,15-.311,29.664-8.655,41.3a88,88,0,0,0-15.864,60.946c4.425,40.48,37,73.111,77.455,77.588a89.93,89.93,0,0,0,9.885.545,88.8,88.8,0,0,0,28.1-4.559A87.5,87.5,0,0,0,168,496a88.666,88.666,0,0,0,14.337-1.181A40.028,40.028,0,0,0,192,496H352a40.045,40.045,0,0,0,40-40V432h24a72.081,72.081,0,0,0,72-72V312A72.081,72.081,0,0,0,416,240ZM238.241,96H222.559l-4.334-21.669L231.862,64.1Zm-12.8-64,2.943,14.712L214.747,56.94,209.759,32ZM184,144h72a8,8,0,0,0,0-16H208a8,8,0,0,1,0-16h56a8,8,0,0,0,6.4-3.2L288,85.333,305.6,108.8A8,8,0,0,0,312,112h24a8,8,0,0,1,0,16,8,8,0,0,0,0,16h24a8,8,0,0,1,0,16H184a8,8,0,0,1,0-16Zm-8,32H368v16H176ZM103.754,479.542A71.94,71.94,0,0,1,53.407,366.234c10.9-15.2,14.944-34.213,11.385-53.526A48.193,48.193,0,0,1,64,304a48,48,0,0,1,48-48q.393,0,.789.006a48.728,48.728,0,0,1,47.205,49,48.1,48.1,0,0,1-.92,8.417c-3.536,17.662,1.013,37.075,12.809,54.662a71.656,71.656,0,0,1,8.679,17.944A39.977,39.977,0,0,0,128.805,416H96a8,8,0,0,0-8,8c0,22.485,11.518,42.589,29.515,55.8A74.311,74.311,0,0,1,103.754,479.542ZM190.624,416H145.376a24,24,0,0,1,45.248,0ZM168,480c-32.186,0-58.9-20.9-63.349-48h126.7C226.9,459.1,200.186,480,168,480Zm208-24a24.027,24.027,0,0,1-24,24H218.205C236.361,466.79,248,446.6,248,424a8,8,0,0,0-8-8H207.2a39.835,39.835,0,0,0-7.6-16.493c-.01-.1-.017-.2-.027-.3a87.731,87.731,0,0,0-14.4-40.032c-9.405-14.023-13.1-29.155-10.407-42.61a64.24,64.24,0,0,0,1.226-11.224A62.577,62.577,0,0,0,168,273.452V256a23.735,23.735,0,0,1,12.024-20.648A8,8,0,0,0,184,228.438V208H360v20.438a8,8,0,0,0,3.977,6.915A23.734,23.734,0,0,1,376,256Zm16-168h24a24.028,24.028,0,0,1,24,24v48a24.028,24.028,0,0,1-24,24H392Zm80,72a56.063,56.063,0,0,1-56,56H392V400h24a40.045,40.045,0,0,0,40-40V312a40.045,40.045,0,0,0-40-40H392V256h24a56.063,56.063,0,0,1,56,56Z"/></svg>
